# xmcd
#
# Track frame offsets:
#	150
#	13964
#	25807
#	30060
#	46331
#	54557
#	62197
#	78121
#	93353
#	104912
#	117178
#	119699
#	134010
#	154479
#	171537
#	189726
#	202672
#	222475
#	235168
#	239323
#	255848
#	268478
#	283050
#
# Disc length: 3975 seconds
#
# Revision: 1
# Processed by: cddbd v1.5.2PL0 Copyright (c) Steve Scherf et al.
# Submitted via: audiograbber 1.80
#
DISCID=560f8517
DTITLE=Earl Scruggs, Doc Watson and Ricky Skaggs - he Three Pickers
DYEAR=1900
DGENRE=
TTITLE0=Feast Here Tonight
TTITLE1=What Would You Give in Exchange for Your Soul
TTITLE2=Spoken Introduction
TTITLE3=Who will Sing for Me
TTITLE4=Spoken Introduction
TTITLE5=Soldier's Joy
TTITLE6=Walk On Boy
TTITLE7=Daybreak Blues
TTITLE8=Don't Let your Deal Go Down
TTITLE9=Pick Along
TTITLE10=Spoken Introduction
TTITLE11=What is a Home without Love
TTITLE12=Doin' My Time
TTITLE13=Earl's Breakdown
TTITLE14=The Storms are on the Ocean
TTITLE15=Down in the Valley to Pray
TTITLE16=The Banks of the Ohio
TTITLE17=Ridin' that Midnight Train
TTITLE18=Spoken Introduction
TTITLE19=Road to Spencer
TTITLE20=Katy Hill
TTITLE21=Foggy Mountain Top
TTITLE22=Roll in My Sweet Baby's Arms
EXTD=
EXTT0=
EXTT1=
EXTT2=
EXTT3=
EXTT4=
EXTT5=
EXTT6=
EXTT7=
EXTT8=
EXTT9=
EXTT10=
EXTT11=
EXTT12=
EXTT13=
EXTT14=
EXTT15=
EXTT16=
EXTT17=
EXTT18=
EXTT19=
EXTT20=
EXTT21=
EXTT22=
PLAYORDER=
